<?xml version="1.0" standalone="no"?>
<!DOCTYPE svg PUBLIC "-//W3C//DTD SVG 20010904//EN"
 "http://www.w3.org/TR/2001/REC-SVG-20010904/DTD/svg10.dtd">
<svg version="1.0" xmlns="http://www.w3.org/2000/svg"
 width="110.000000pt" height="111.000000pt" viewBox="0 0 110.000000 111.000000"
 preserveAspectRatio="xMidYMid meet">

<g transform="translate(0.000000,111.000000) scale(0.100000,-0.100000)"
fill="#000000" stroke="none">
<path d="M495 1001 c-58 -14 -106 -44 -149 -92 -37 -42 -50 -49 -80 -49 -101
0 -181 -82 -193 -196 -8 -75 31 -155 87 -181 l39 -18 1 -112 c0 -150 18 -191
102 -234 77 -40 169 -37 232 6 l37 25 41 -28 c35 -23 54 -28 122 -30 70 -3 87
0 126 20 68 37 79 67 80 221 0 70 4 127 9 127 5 0 24 12 42 27 68 58 89 170
47 253 -33 63 -81 98 -160 114 -60 13 -72 20 -121 69 -73 75 -163 102 -262 78z
m143 -77 c43 -17 97 -67 118 -106 13 -25 20 -28 70 -28 68 0 112 -19 142 -63
44 -66 19 -143 -66 -200 l-43 -29 2 -144 c1 -106 -2 -148 -11 -159 -40 -48
-135 -59 -205 -25 -42 21 -117 94 -214 210 -30 36 -66 76 -80 88 -26 24 -26
24 -29 3 -7 -45 45 -155 95 -203 16 -15 46 -34 68 -41 21 -8 40 -18 42 -24 6
-16 -78 -53 -118 -53 -42 0 -97 27 -120 60 -15 21 -19 47 -20 150 -1 135 -4
150 -25 150 -24 0 -94 71 -102 104 -27 103 65 200 172 182 28 -4 35 0 68 43
65 86 170 121 256 85z"/>
<path d="M660 441 c-56 -49 -62 -65 -73 -191 -3 -37 28 -38 48 -1 11 23 23 31
42 31 20 0 41 15 79 57 65 70 60 93 -7 27 -27 -26 -52 -45 -56 -41 -4 4 15 30
42 57 27 28 45 50 40 50 -5 0 -28 -19 -52 -42 -57 -56 -69 -40 -13 17 24 25
41 47 39 50 -3 2 -23 -13 -44 -35 -22 -22 -46 -40 -54 -40 -9 0 4 20 33 49 63
64 45 73 -24 12z"/>
</g>
</svg>
